<svg width="53" height="52" viewBox="0 0 53 52" fill="none" xmlns="http://www.w3.org/2000/svg">
<path d="M47.65 44.8496C45.0875 44.8496 43 42.6969 43 40.0543V18.759C43 16.1164 45.0875 13.9637 47.65 13.9637C50.2125 13.9637 52.3 16.1164 52.3 18.759V40.0543C52.3 42.6969 50.2125 44.8496 47.65 44.8496ZM47.65 17.457C46.95 17.457 46.3875 18.0371 46.3875 18.759V40.0543C46.3875 40.7762 46.95 41.3562 47.65 41.3562C48.35 41.3562 48.9125 40.7762 48.9125 40.0543V18.759C48.9125 18.0371 48.35 17.457 47.65 17.457Z" fill="#F0BF5F"/>
<path d="M9.17496 19.7129H3.28746C2.34996 19.7129 1.58746 18.9266 1.58746 17.9598C1.58746 16.993 2.34996 16.2066 3.28746 16.2066H9.17496C10.1125 16.2066 10.875 16.993 10.875 17.9598C10.875 18.9266 10.1125 19.7129 9.17496 19.7129Z" fill="#2D527C"/>
<path d="M9.17496 42.5938H3.28746C2.34996 42.5938 1.58746 41.8074 1.58746 40.8406C1.58746 39.8738 2.34996 39.0875 3.28746 39.0875H9.17496C10.1125 39.0875 10.875 39.8738 10.875 40.8406C10.875 41.8074 10.1125 42.5938 9.17496 42.5938Z" fill="#2D527C"/>
<path d="M1.92498 22.4199C0.987476 22.4199 0.224976 21.6336 0.224976 20.6668V1.97538C0.224976 1.00859 0.987476 0.22226 1.92498 0.22226C2.86248 0.22226 3.62498 1.02148 3.62498 1.97538V20.6668C3.62498 21.6336 2.86248 22.4199 1.92498 22.4199Z" fill="#F0BF5F"/>
<path d="M1.92498 51.2691C0.987476 51.2691 0.224976 50.4828 0.224976 49.516V29.4066C0.224976 28.4398 0.987476 27.6535 1.92498 27.6535C2.86248 27.6535 3.62498 28.4398 3.62498 29.4066V49.516C3.62498 50.4828 2.86248 51.2691 1.92498 51.2691Z" fill="#2D527C"/>
</svg>
