<svg width="34" height="35" viewBox="0 0 34 35" fill="none" xmlns="http://www.w3.org/2000/svg">
<path d="M2.7875 29.5453C1.8 29.5453 0.987503 28.7203 0.987503 27.6891V6.63867C1 3.32578 3.775 0.644531 7.2 0.644531C10.625 0.644531 13.4 3.33867 13.4 6.65156C13.4 7.66992 12.6 8.50781 11.6 8.50781C10.6 8.50781 9.8 7.68281 9.8 6.65156C9.8 5.38828 8.625 4.35703 7.1875 4.35703C5.75 4.35703 4.575 5.38828 4.575 6.65156V27.702C4.5875 28.7074 3.7875 29.5453 2.7875 29.5453Z" fill="#F0BF5F"/>
<path d="M23.3875 34.9078C22.4 34.9078 21.5875 34.0828 21.5875 33.0516V6.63867C21.6 3.32578 24.375 0.644531 27.8 0.644531C31.225 0.644531 34 3.32578 34 6.63867C34 7.65703 33.2 8.49492 32.2 8.49492C31.2125 8.49492 30.4 7.66992 30.4 6.63867C30.4 5.37539 29.225 4.34414 27.7875 4.34414C26.35 4.34414 25.175 5.37539 25.175 6.63867V33.0516C25.1875 34.0699 24.3875 34.9078 23.3875 34.9078Z" fill="#F0BF5F"/>
<path d="M12.5008 16.1133H2.80076C1.81326 16.1133 1.00076 15.2883 1.00076 14.257C1.00076 13.2258 1.80076 12.4008 2.80076 12.4008H12.5008C13.4883 12.4008 14.3008 13.2258 14.3008 14.257C14.3008 15.2883 13.4883 16.1133 12.5008 16.1133Z" fill="#F0BF5F"/>
<path d="M12.5008 29.5453H2.80076C1.81326 29.5453 1.00076 28.7203 1.00076 27.6891C1.00076 26.6578 1.80076 25.8328 2.80076 25.8328H12.5008C13.4883 25.8328 14.3008 26.6578 14.3008 27.6891C14.2883 28.7074 13.4883 29.5453 12.5008 29.5453Z" fill="#F0BF5F"/>
<path d="M23.3875 22.8293H13.6875C12.7 22.8293 11.8875 22.0043 11.8875 20.9731C11.8875 19.9418 12.6875 19.1168 13.6875 19.1168H23.3875C24.375 19.1168 25.1875 19.9418 25.1875 20.9731C25.1875 22.0043 24.3875 22.8293 23.3875 22.8293Z" fill="#F0BF5F"/>
</svg>
